<svg data-v-0dd9719b="" version="1.0" xmlns="http://www.w3.org/2000/svg"
    xmlns:xlink="http://www.w3.org/1999/xlink" width="100%" height="100%"
    viewBox="0 0 340.000000 250.000000" preserveAspectRatio="xMidYMid meet"
    color-interpolation-filters="sRGB" style="margin: auto;">
    <g data-v-0dd9719b="" fill="#007b6e" class="icon-text-wrapper icon-svg-group iconsvg"
        transform="translate(79.35871124267578,93.0443115234375)">
        <g class="iconsvg-imagesvg" transform="translate(0,0)">
            <g>
                <rect fill="#007b6e" fill-opacity="0" stroke-width="2" x="0" y="0" width="60"
                    height="63.911376224968045" class="image-rect"></rect>
                <svg x="0" y="0" width="60" height="63.911376224968045"
                    filtersec="colorsb4075841492" class="image-svg-svg primary"
                    style="overflow: visible;">
                    <svg xmlns="http://www.w3.org/2000/svg" viewBox="0 0 54 57.52000045776367">
                        <g>
                            <g>
                                <path
                                    d="M27.52 0C33.5 11.86 44 16.63 52.87 18.09a65 65 0 0 0 1.13-6.8L47.24 0z"
                                    fill="#00a29a"></path>
                                <path
                                    d="M51.23 24.38C32.39 21.54 18.5 9.12 13.55 0c1.34 21.54 21.12 35.7 31.7 38.77a73.78 73.78 0 0 0 5.98-14.39z"
                                    fill="#007b6e"></path>
                                <path
                                    d="M3.53 5.42L0 11.29a80.2 80.2 0 0 0 4.5 18.14c4.17 3.4 13.46 5.39 22 5.39-8.89-6.01-18.56-16.7-22.97-29.4z"
                                    fill="#2ea7e0"></path>
                                <path
                                    d="M27 57.52a43.17 43.17 0 0 0 16-14.93 77.11 77.11 0 0 1-34.3-4C12.71 46 18.57 53.11 27 57.52z"
                                    fill="#00679c"></path>
                            </g>
                        </g>
                    </svg>
                </svg> <!---->
            </g>
        </g>
        <g transform="translate(67,7.3456878662109375)">
            <g data-gra="path-name" fill-rule="" class="tp-name iconsvg-namesvg">
                <g transform="scale(1)">
                    <g>
                        <path
                            d="M32.52-34.1L32.52 0 25.02 0 25.02-34.1Q25.02-36.33 22.85-36.33L22.85-36.33Q20.68-36.33 20.68-34.1L20.68-34.1 20.68 0 13.18 0 13.18-34.1Q13.18-36.33 11.02-36.33L11.02-36.33Q8.85-36.33 8.85-34.1L8.85-34.1 8.85 0 1.35 0 1.35-41.02 8.85-41.02 8.85-39.55Q11.02-41.02 14.85-41.02L14.85-41.02Q17.75-41.02 20.68-38.67L20.68-38.67Q22.85-41.02 26.13-41.02L26.13-41.02Q28.3-41.02 30.41-39.7 32.52-38.38 32.52-34.1L32.52-34.1ZM41.92-41.02L41.92 0 34.51 0 34.51-41.02 41.92-41.02ZM34.45-45.47Q34.45-43.97 35.55-42.85 36.65-41.72 38.2-41.72L38.2-41.72Q39.76-41.72 40.85-42.82 41.95-43.92 41.95-45.53L41.95-45.53Q41.95-47.11 40.9-48.16 39.84-49.22 38.35-49.22L38.35-49.22Q36.8-49.22 35.63-48.09 34.45-46.96 34.45-45.47L34.45-45.47ZM63.54-34.1L63.54 0 56.04 0 56.04-34.1Q56.04-36.33 53.88-36.33L53.88-36.33Q51.71-36.33 51.71-34.1L51.71-34.1 51.71 0 44.21 0 44.21-41.02 51.71-41.02 51.71-39.61Q53.88-41.02 57.71-41.02L57.71-41.02Q59.97-41.02 61.76-39.11 63.54-37.21 63.54-34.1L63.54-34.1ZM72.83-41.02L72.83 0 65.42 0 65.42-41.02 72.83-41.02ZM65.36-45.47Q65.36-43.97 66.46-42.85 67.56-41.72 69.11-41.72L69.11-41.72Q70.66-41.72 71.76-42.82 72.86-43.92 72.86-45.53L72.86-45.53Q72.86-47.11 71.81-48.16 70.75-49.22 69.26-49.22L69.26-49.22Q67.71-49.22 66.53-48.09 65.36-46.96 65.36-45.47L65.36-45.47ZM94.45-34.1L94.45 0 86.95 0 86.95-34.1Q86.95-36.33 84.79-36.33L84.79-36.33Q82.62-36.33 82.62-34.1L82.62-34.1 82.62 0 75.12 0 75.12-41.02 82.62-41.02 82.62-39.61Q84.79-41.02 88.62-41.02L88.62-41.02Q90.88-41.02 92.67-39.11 94.45-37.21 94.45-34.1L94.45-34.1ZM106.38 0L97.73 0 97.73-5.27 104.5-5.27Q108.08-5.27 108.08-8.88L108.08-8.88Q104.65-7.62 102.89-7.62L102.89-7.62Q96.24-7.62 96.24-14.53L96.24-14.53 96.24-34.1Q96.24-41.02 102.89-41.02L102.89-41.02Q104.65-41.02 108.08-39.67L108.08-39.67 108.08-41.02 115.58-41.02 115.58-8.88Q115.93-5.24 113.95-2.62 111.97 0 106.38 0L106.38 0ZM108.08-14.53L108.08-14.53 108.08-34.1Q108.08-36.33 105.91-36.33L105.91-36.33Q103.74-36.33 103.74-34.1L103.74-34.1 103.74-14.53Q103.74-12.3 105.91-12.3L105.91-12.3Q108.08-12.3 108.08-14.53Z"
                            transform="translate(-1.350000023841858, 49.220001220703125)"></path>
                    </g> <!----> <!----> <!----> <!----> <!----> <!----> <!---->
                </g>
            </g> <!---->
        </g>
    </g>
    <defs v-gra="od"></defs>
</svg>